<svg xmlns="http://www.w3.org/2000/svg" width="159" height="156" viewBox="0 0 159 156" fill="none">
  <path d="M133.524 138.379C133.524 139.286 133.533 140.192 133.524 141.104C133.495 144.141 133.577 147.187 133.395 150.214C133.208 153.298 131.78 154.963 128.725 155.472C126.325 155.87 123.858 155.894 121.415 155.951C118.269 156.028 115.117 155.994 111.97 155.966C110.399 155.951 108.814 155.951 107.257 155.75C103.583 155.27 101.643 153.092 101.61 149.398C101.548 142.207 101.552 135.021 101.528 127.83C101.524 127.015 101.528 126.199 101.528 125.321C92.2891 121.479 84.9608 115.348 79.3424 106.981C74.9885 113.51 69.4995 118.567 62.7795 122.246C61.2995 123.057 59.7764 123.805 58.2149 124.443C57.3288 124.808 56.9791 125.225 57.0031 126.223C57.1372 132.594 57.2522 138.964 57.2665 145.335C57.2713 147.422 57.1516 149.547 56.7636 151.591C56.3134 153.96 54.6753 155.443 52.2277 155.5C45.2874 155.659 38.3375 155.85 31.402 155.692C27.4121 155.601 25.5633 153.294 25.501 149.317C25.4483 145.925 25.4244 142.538 25.3813 139.147C25.3813 139.041 25.3142 138.931 25.2136 138.633C24.7634 138.883 24.318 139.075 23.9348 139.353C20.5053 141.828 17.4686 144.692 15.0115 148.175C13.0717 150.924 10.5714 152.958 6.95517 152.473C1.87326 151.797 -1.20653 146.827 0.450713 141.943C1.02069 140.264 1.91158 138.576 3.05633 137.233C9.11055 130.099 16.731 125.523 25.9369 123.69C26.4446 123.589 26.9715 123.589 27.6277 123.815C27.1726 124.074 26.7176 124.333 26.2626 124.587C19.6623 128.286 13.4596 132.527 8.32504 138.154C7.35272 139.219 6.54804 140.466 5.82 141.718C5.42246 142.394 5.23087 143.248 5.14465 144.04C5.00096 145.369 5.44641 146.515 6.84501 146.942C8.18134 147.35 9.12492 146.803 9.95833 145.652C13.7662 140.399 18.4026 135.981 23.8294 132.44C24.931 131.721 26.2147 131.188 27.4888 130.857C29.4621 130.344 30.626 131.203 30.9709 133.227C31.105 134.028 31.0906 134.858 31.0906 135.674C31.1098 139.708 31.1002 143.738 31.1337 147.772C31.1385 148.52 31.3014 149.264 31.402 150.094C38.2034 150.094 44.8899 150.094 51.8398 150.094C51.8398 149.403 51.8398 148.731 51.8398 148.055C51.8398 140.341 51.8254 132.622 51.835 124.909C51.8398 121.886 52.4672 121.071 55.3315 120.049C64.3649 116.83 71.2526 110.954 76.368 102.913C77.4936 101.148 77.1631 99.6897 75.5346 98.7351C74.1839 97.9484 72.8619 98.1402 72.0189 99.4691C64.4511 111.376 52.8791 117.401 39.9229 121.359C36.6419 122.361 33.2748 123.081 29.8214 123.959C30.8464 121.335 33.5861 121.742 35.5499 120.313C30.8655 120.5 27.1487 119.027 24.203 115.732C19.26 110.205 19.2983 102.064 24.3323 97.2048C26.2003 95.401 28.4275 94.2353 31.0715 94.3409C32.2114 94.384 33.337 94.9117 34.4674 95.2188C34.477 95.4298 34.4818 95.6361 34.4914 95.8472C33.4424 96.4133 32.4078 97.0129 31.3397 97.5406C25.7405 100.294 24.4473 108.373 28.9257 112.729C31.5552 115.285 35.8277 115.506 39.4727 113.271C42.7776 111.246 44.1187 107.528 42.8782 103.667C41.8532 100.476 39.7074 98.2794 36.6755 96.917C36.2013 96.7011 35.7079 96.5236 35.229 96.3221C35.1907 96.3029 35.1715 96.231 34.9512 95.852C35.5595 95.6025 36.1103 95.2283 36.6898 95.1708C40.6126 94.7774 43.6397 96.3365 45.7376 99.6274C48.9563 104.669 48.3145 111.611 44.2864 116.048C44.0996 116.254 43.9271 116.466 43.6637 116.773C43.9654 116.773 44.157 116.83 44.2911 116.763C51.653 113.232 58.6124 109.111 64.0536 102.865C65.3516 101.378 66.458 99.7137 67.5693 98.0731C70.7784 93.3287 74.3803 92.5611 79.1125 95.6265C80.3099 94.9981 81.4164 94.2065 82.6521 93.8036C86.0049 92.7098 89.2524 93.8516 91.1587 96.9122C96.0442 104.756 102.975 110.196 111.113 114.259C111.687 114.547 112.272 114.801 112.861 115.055C112.952 115.094 113.081 115.046 113.326 115.026C109.796 109.346 110.04 103.743 113.838 98.3897C116.257 94.9837 119.658 93.4678 124.476 94.1682C123.623 94.8158 123.159 95.2811 122.598 95.5737C118.202 97.8764 115.668 101.422 115.562 106.444C115.457 111.409 118.719 114.729 123.786 115.041C128.332 115.319 132.13 112.076 132.743 107.471C133.16 104.329 132.168 101.69 129.946 99.5314C128.322 97.9531 126.584 96.49 124.874 94.9597C127.393 93.5685 131.704 94.4176 134.238 96.8018C136.901 99.3108 137.94 102.525 138.108 106.094C138.443 113.218 134.673 118.423 127.518 120.308C128.629 120.85 129.501 121.277 130.377 121.709C124.524 122.203 119.112 120.342 113.714 118.619C104.776 115.765 96.8106 111.299 90.8043 103.849C89.7457 102.534 88.8644 101.076 87.8442 99.7281C86.4552 97.886 85.047 97.459 83.5047 98.3321C81.9385 99.2196 81.3589 100.932 82.336 102.913C83.1503 104.568 84.18 106.185 85.411 107.552C90.0283 112.676 95.5173 116.715 101.605 119.929C102.424 120.361 103.286 120.845 104.177 120.999C106.256 121.354 106.735 122.668 106.74 124.52C106.768 132.354 106.845 140.183 106.912 148.017C106.931 150.458 106.936 150.449 109.293 150.444C115.409 150.439 121.526 150.444 127.877 150.444C127.877 149.422 127.877 148.803 127.877 148.185C127.882 143.565 127.867 138.95 127.896 134.33C127.92 131.054 129.86 129.634 132.844 130.987C134.942 131.936 137.054 133.15 138.706 134.719C142.462 138.288 146.001 142.092 149.483 145.935C150.518 147.076 151.409 147.326 152.644 146.63C153.966 145.887 154.522 144.4 153.674 143.215C151.672 140.423 149.842 137.377 147.333 135.112C143.012 131.222 138.232 127.844 133.634 124.261C133.088 123.839 132.484 123.489 132.001 122.735C132.892 122.903 133.811 122.98 134.669 123.258C143.209 126.041 150.403 130.828 155.959 137.928C156.95 139.195 157.722 140.691 158.33 142.188C159.872 145.983 158.651 149.298 155.15 151.274C151.6 153.274 147.634 152.588 145.225 149.537C144.138 148.161 143.209 146.64 141.983 145.407C139.454 142.864 136.776 140.471 134.161 138.015C133.95 138.134 133.739 138.254 133.524 138.379Z" fill="url(#paint0_linear_826_7982)"/>
  <path d="M89.9134 68.9733C93.9751 73.0557 93.9272 76.4953 90.2247 80.429C89.9469 80.7216 89.8894 81.3453 89.9325 81.7962C90.2678 85.255 89.0033 87.7063 85.8469 89.1791C81.6846 91.1171 77.4601 91.0596 73.3552 89.0352C70.6347 87.692 69.102 85.4852 69.2313 82.2951C69.2505 81.7914 69.0924 81.1054 68.7523 80.7888C64.5182 76.8359 64.8295 72.7775 69.9785 69.5682C68.6422 67.5437 67.4016 65.4522 65.9551 63.5189C64.1685 61.1395 62.2143 58.8896 60.3272 56.5869C52.4145 46.9542 54.886 34.5342 63.5746 27.2953C75.8028 17.1012 97.7877 19.5142 103.363 38.655C105.566 46.2106 103.698 52.8931 98.396 58.7409C95.4263 61.9934 92.7537 65.5193 89.9134 68.9733ZM88.4142 68.5991C89.4392 63.3606 91.9586 59.0719 94.866 54.9367C95.9963 53.3296 96.9351 51.5355 97.6488 49.703C100.384 42.6751 98.4487 35.9974 92.3801 31.5312C86.8671 27.4776 80.6644 26.1919 73.9731 27.4872C62.722 29.6651 56.5289 43.1644 62.54 52.5957C63.953 54.812 65.4761 56.9611 66.7502 59.2494C68.1919 61.8351 69.4468 64.5263 70.7017 67.2127C71.2909 68.4792 71.6788 69.832 72.2392 71.3575C72.1578 71.4535 71.7363 71.7557 71.5687 72.1634C71.2047 73.0605 70.582 74.0919 70.764 74.9122C71.0514 76.1739 72.3159 76.4425 73.5947 76.409C77.6181 76.2986 81.6463 76.2363 85.6697 76.1835C86.8096 76.1691 87.8682 76.03 87.9304 74.61C88.0023 73.0365 86.7186 73.1181 85.708 73.0365C83.4999 72.8542 81.2823 72.7871 79.0742 72.6C77.0146 72.4273 74.9646 72.1586 72.9098 71.9284C72.838 71.7317 72.7661 71.5302 72.6943 71.3335C73.269 70.9258 73.7911 70.3501 74.4282 70.1294C78.9018 68.5799 83.5191 68.129 88.4142 68.5991ZM73.1684 81.9929C73.8725 84.0701 75.2664 85.2982 77.0912 85.0967C80.0417 84.7753 83.5286 85.586 85.3104 81.9929C81.2008 81.9929 77.2254 81.9929 73.1684 81.9929Z" fill="url(#paint1_linear_826_7982)"/>
  <path d="M117.359 16.9429C117.344 17.082 117.411 17.4514 117.258 17.6481C115.285 20.2002 113.407 22.8531 111.218 25.2085C110.275 26.2207 108.775 25.6834 107.726 24.748C106.716 23.8461 107.147 22.7763 107.635 21.8552C109.25 18.809 111.898 16.7942 114.81 15.1584C116.343 14.2901 117.325 15.0336 117.359 16.9429Z" fill="url(#paint2_linear_826_7982)"/>
  <path d="M76.459 7.49724C76.7943 5.44883 76.9907 3.41482 77.484 1.45757C77.9151 -0.250235 79.5436 -0.470906 80.7075 0.867512C81.948 2.29708 82.9826 10.0493 81.8906 11.5269C81.3158 12.3088 80.171 12.9133 79.1987 13.0668C78.6719 13.1483 77.6852 12.2321 77.4122 11.5557C76.9044 10.2988 76.7655 8.89322 76.459 7.49724Z" fill="url(#paint3_linear_826_7982)"/>
  <path d="M43.1608 15.4222C45.0719 15.4174 51.447 20.2002 51.6865 22.1191C51.8158 23.1265 51.4374 24.6088 50.7285 25.1893C50.1394 25.669 48.3385 25.5539 47.7541 24.9926C45.4742 22.7907 43.3332 20.4065 41.4125 17.8832C40.4833 16.6599 41.4939 15.427 43.1608 15.4222Z" fill="url(#paint4_linear_826_7982)"/>
  <path d="M33.0832 56.3375C31.5265 56.0449 29.5675 55.7666 27.6564 55.2917C26.1045 54.9079 25.8411 53.9197 26.7751 52.6005C26.8757 52.4566 26.9954 52.327 27.1247 52.2071C28.5712 50.8543 36.3977 49.8373 37.916 51.0222C38.6824 51.6218 39.42 52.8547 39.3577 53.747C39.305 54.4762 38.1603 55.4116 37.3077 55.733C36.139 56.1744 34.7883 56.1216 33.0832 56.3375Z" fill="url(#paint5_linear_826_7982)"/>
  <path d="M123.604 56.2655C122.939 56.1216 121.914 56.2032 121.415 55.7282C120.644 54.9991 119.911 53.9485 119.749 52.9363C119.504 51.4587 121.071 50.8111 122.043 50.8111C125.262 50.8015 128.495 51.051 131.699 51.4156C133.237 51.5883 133.098 52.8883 132.403 53.7854C131.876 54.4618 130.976 55.0566 130.142 55.2437C128.044 55.7091 125.894 55.9249 123.604 56.2655Z" fill="url(#paint6_linear_826_7982)"/>
  <defs>
    <linearGradient id="paint0_linear_826_7982" x1="0" y1="77.9992" x2="158.986" y2="77.9992" gradientUnits="userSpaceOnUse">
      <stop stop-color="#03D9CC"/>
      <stop offset="1" stop-color="#4BA6FF"/>
    </linearGradient>
    <linearGradient id="paint1_linear_826_7982" x1="0" y1="77.9992" x2="158.986" y2="77.9992" gradientUnits="userSpaceOnUse">
      <stop stop-color="#03D9CC"/>
      <stop offset="1" stop-color="#4BA6FF"/>
    </linearGradient>
    <linearGradient id="paint2_linear_826_7982" x1="0" y1="77.9992" x2="158.986" y2="77.9992" gradientUnits="userSpaceOnUse">
      <stop stop-color="#03D9CC"/>
      <stop offset="1" stop-color="#4BA6FF"/>
    </linearGradient>
    <linearGradient id="paint3_linear_826_7982" x1="0" y1="77.9992" x2="158.986" y2="77.9992" gradientUnits="userSpaceOnUse">
      <stop stop-color="#03D9CC"/>
      <stop offset="1" stop-color="#4BA6FF"/>
    </linearGradient>
    <linearGradient id="paint4_linear_826_7982" x1="0" y1="77.9992" x2="158.986" y2="77.9992" gradientUnits="userSpaceOnUse">
      <stop stop-color="#03D9CC"/>
      <stop offset="1" stop-color="#4BA6FF"/>
    </linearGradient>
    <linearGradient id="paint5_linear_826_7982" x1="0" y1="77.9992" x2="158.986" y2="77.9992" gradientUnits="userSpaceOnUse">
      <stop stop-color="#03D9CC"/>
      <stop offset="1" stop-color="#4BA6FF"/>
    </linearGradient>
    <linearGradient id="paint6_linear_826_7982" x1="0" y1="77.9992" x2="158.986" y2="77.9992" gradientUnits="userSpaceOnUse">
      <stop stop-color="#03D9CC"/>
      <stop offset="1" stop-color="#4BA6FF"/>
    </linearGradient>
  </defs>
</svg>