<svg width="63" height="63" viewBox="0 0 63 63" fill="none" xmlns="http://www.w3.org/2000/svg">
<rect width="63" height="63" rx="12" fill="#F3F9FF"/>
<path d="M23.7489 30.4878C23.6673 29.962 23.6249 29.4234 23.6249 28.875C23.6249 23.076 28.3569 18.375 34.194 18.375C40.0312 18.375 44.7631 23.076 44.7631 28.875C44.7631 30.185 44.5216 31.4389 44.0805 32.5953C43.9889 32.8355 43.9431 32.9555 43.9223 33.0493C43.9017 33.1422 43.8937 33.2075 43.8915 33.3027C43.8892 33.3987 43.9022 33.5044 43.9283 33.7159L44.4567 38.0081C44.5139 38.4727 44.5425 38.705 44.4652 38.8739C44.3975 39.0219 44.2772 39.1394 44.1277 39.2037C43.957 39.2771 43.7254 39.2431 43.2623 39.1753L39.0816 38.5624C38.8633 38.5305 38.7542 38.5145 38.6548 38.515C38.5564 38.5156 38.4884 38.5228 38.3921 38.5431C38.2949 38.5635 38.1706 38.6101 37.922 38.7032C36.7627 39.1374 35.5063 39.375 34.194 39.375C33.6452 39.375 33.1061 39.3334 32.5797 39.2533M25.7664 44.625C29.6579 44.625 32.8125 41.3931 32.8125 37.4062C32.8125 33.4194 29.6579 30.1875 25.7664 30.1875C21.875 30.1875 18.7204 33.4194 18.7204 37.4062C18.7204 38.2077 18.8479 38.9786 19.0832 39.6988C19.1826 40.0033 19.2324 40.1555 19.2487 40.2595C19.2657 40.3681 19.2687 40.4291 19.2624 40.5388C19.2563 40.6439 19.23 40.7627 19.1774 41.0003L18.375 44.625L22.3057 44.0882C22.5202 44.0589 22.6275 44.0442 22.7212 44.0449C22.8198 44.0455 22.8722 44.0509 22.9689 44.0702C23.0608 44.0885 23.1973 44.1367 23.4705 44.2331C24.1902 44.4871 24.9626 44.625 25.7664 44.625Z" stroke="#03D9CC" stroke-width="2.625" stroke-linecap="round" stroke-linejoin="round"/>
</svg>
