<svg xmlns="http://www.w3.org/2000/svg" width="71" height="75" viewBox="0 0 71 75" fill="none">
  <path d="M57.975 0C59.9926 0.778743 62.0141 1.55162 64.0278 2.3421C65.1563 2.78626 66.2711 3.10128 67.5212 2.80387C68.4633 2.57885 69.2425 3.09932 69.5761 4.05025C72.5102 12.411 71.0952 22.1159 63.5116 28.6863C62.6088 29.469 61.6373 30.1773 60.6579 30.8641C60.2811 31.1282 60.2262 31.3473 60.3714 31.7543C61.602 35.2156 62.1554 38.7904 62.0671 42.4591C61.9906 45.6504 61.4646 48.7693 60.3459 51.7668C60.0829 52.4693 60.1614 52.9174 60.7364 53.383C61.2467 53.7959 61.6883 54.2968 62.1456 54.7703C63.1348 55.7956 63.1564 57.0146 62.1633 58.0164C60.0809 60.1178 57.9809 62.1997 55.8809 64.2815C55.3039 64.8529 54.6759 64.9018 54.2009 64.4498C53.6985 63.9724 53.7397 63.3228 54.3402 62.724C56.4304 60.6343 58.5265 58.5505 60.5736 56.5117C58.66 54.6118 56.7759 52.7393 54.9585 50.9353C49.6084 56.273 44.1562 61.7125 38.7354 67.1206C40.5155 68.8914 42.3996 70.7658 44.3269 72.6814C44.4565 72.5581 44.6488 72.382 44.8352 72.1981C46.6703 70.3686 48.5014 68.5372 50.3404 66.7117C50.9567 66.0993 51.5808 66.0366 52.0734 66.516C52.5641 66.9954 52.515 67.6391 51.9105 68.2437C49.9067 70.2512 47.9048 72.2568 45.8852 74.2467C44.8647 75.2524 43.6655 75.2505 42.6371 74.2624C41.7206 73.3819 40.8511 72.4525 39.9189 71.5896C39.7187 71.4037 39.3124 71.2804 39.0533 71.345C33.9878 72.5875 28.9281 72.6031 23.8744 71.3176C23.4465 71.208 23.2032 71.3176 22.9245 71.6072C22.0747 72.4838 21.2072 73.3466 20.3318 74.1997C19.2426 75.2602 18.0415 75.2739 16.9757 74.2134C11.5687 68.8346 6.16952 63.4499 0.772297 58.0614C-0.258083 57.0322 -0.252195 55.7975 0.758558 54.7664C1.30613 54.2087 1.84978 53.6433 2.42679 53.1169C2.7624 52.8097 2.81539 52.5436 2.65446 52.1034C1.37286 48.6088 0.735007 44.9949 0.837063 41.2734C1.09613 31.9128 4.74858 24.0765 12.0437 18.2046C21.0717 10.9376 31.2342 9.38601 42.2053 13.1662C42.431 13.2445 42.6626 13.3071 42.8844 13.3756C42.9688 11.9512 42.9354 10.5541 43.1592 9.19621C43.4418 7.47241 43.8834 5.76818 44.3505 4.08351C44.6331 3.06606 45.5163 2.57885 46.5251 2.81952C47.5064 3.05432 48.421 2.90757 49.3238 2.55929C50.0068 2.2971 50.6623 1.96251 51.3472 1.70032C52.8663 1.12116 54.3972 0.567426 55.9221 0.00391328C56.6051 0 57.2901 0 57.975 0ZM34.1605 28.9955C34.7611 29.559 35.3871 30.0775 35.9308 30.6684C37.2163 32.0635 37.3831 34.1688 36.3744 35.7576C35.6658 36.8749 34.6217 37.4912 33.2616 37.7377C33.5678 39.44 33.1851 40.9251 31.8485 42.0443C30.5159 43.1615 28.9851 43.2926 27.3541 42.7154C26.94 44.1066 26.1687 45.126 24.8734 45.6973C23.5898 46.2628 22.3141 46.1082 21.0718 45.576C19.957 48.3721 17.91 49.3191 15.1211 48.3936C14.9621 48.3408 14.6971 48.3271 14.599 48.419C13.6197 49.3543 12.6639 50.315 11.7767 51.1936C15.598 55.0051 19.3309 58.7305 23.0933 62.4834C23.2287 62.3562 23.4092 62.1957 23.578 62.0275C25.3797 60.2352 27.1794 58.439 28.9831 56.6467C30.0037 55.6332 31.1734 54.7899 32.561 54.4298C33.8465 54.0952 35.2007 53.8331 36.5176 53.8546C38.6196 53.8878 40.6804 53.9544 42.5743 52.8508C42.5959 52.8391 42.6194 52.8313 42.643 52.8234C43.2121 52.6121 43.6714 52.7941 43.9697 53.2832C44.2975 53.8213 44.1581 54.3222 43.6753 54.7096C43.4869 54.8603 43.2573 54.9601 43.0394 55.0697C41.0238 56.0989 38.8689 56.1517 36.6668 56.046C35.6148 55.9971 34.553 56.1791 33.4049 56.2613C35.6246 58.4664 37.6991 60.5267 39.7304 62.544C43.5321 58.754 47.4043 54.8936 51.2314 51.0801C50.7133 50.5342 50.152 49.9433 49.5122 49.2702C48.8822 49.9315 48.2993 50.5889 47.6653 51.1955C47.1865 51.6534 46.5722 51.6416 46.1463 51.219C45.7322 50.8042 45.6654 50.3189 45.9893 49.8239C46.1208 49.6224 46.3151 49.46 46.4878 49.2878C48.8763 46.9046 51.2668 44.5253 53.6514 42.1382C53.9085 41.8799 54.1754 41.6119 54.354 41.3008C54.772 40.567 54.7818 39.8 54.301 39.0859C53.8162 38.3658 53.0881 38.0723 52.2579 38.2504C51.8281 38.3423 51.4375 38.6456 51.047 38.8824C50.517 39.2052 50.0166 39.2091 49.5848 38.7513C49.1785 38.3208 49.1864 37.8317 49.5102 37.3464C49.6044 37.2055 49.73 37.0823 49.8242 36.9414C50.7113 35.6109 49.8753 33.7971 48.2816 33.754C47.734 33.7384 47.1453 34.0906 46.6271 34.3704C46.0933 34.656 45.6046 34.7578 45.1473 34.3273C44.6625 33.8734 44.6645 33.3451 45.0629 32.8187C45.1669 32.6818 45.2827 32.5546 45.371 32.4098C45.7871 31.7289 45.8185 31.0167 45.4437 30.3201C45.0668 29.6216 44.4368 29.1813 43.6459 29.289C43.1003 29.3614 42.5664 29.6646 42.0699 29.9405C41.5223 30.2438 41.0376 30.2575 40.6077 29.8016C40.2034 29.3711 40.2152 28.88 40.5371 28.3967C40.6176 28.2754 40.7216 28.1698 40.806 28.0504C41.436 27.1543 41.3339 26.0468 40.5567 25.3268C39.7775 24.6028 38.6157 24.5324 37.8247 25.2837C36.602 26.444 35.4539 27.6786 34.1605 28.9955ZM58.3106 51.0272C60.4087 44.6545 60.3832 38.5165 58.2576 32.3276C57.502 32.762 56.8171 32.9244 56.085 32.537C49.5083 29.062 44.8784 24.0452 43.3613 16.5688C43.2769 16.1521 43.1278 15.8879 42.7097 15.7157C35.2144 12.6262 27.6819 12.5225 20.2396 15.7255C7.95159 21.0143 1.19622 33.6581 3.4925 46.8126C3.73194 48.1803 4.14213 49.5187 4.47185 50.8688C4.5582 50.8883 4.64456 50.9098 4.73288 50.9294C5.08811 50.5303 5.42765 50.1135 5.80447 49.7359C7.48644 48.0453 8.22832 48.0218 10.0006 49.5793C10.0359 49.6106 10.0869 49.6224 10.0791 49.6185C11.0525 48.6441 12.0123 47.6853 13.0505 46.6463C12.1398 45.758 11.1467 44.8521 10.2282 43.8777C8.08897 41.606 8.97215 37.9941 11.9004 36.9336C12.077 36.869 12.2517 36.8005 12.4656 36.7203C11.9279 35.2508 12.077 33.8929 12.9524 32.6485C13.8316 31.4002 15.1073 30.8778 16.6382 30.8249C16.646 29.5492 17.0425 28.4789 17.9178 27.6082C18.7931 26.7375 19.8922 26.397 21.0776 26.3403C21.4407 23.2938 22.9461 21.9457 25.9116 21.9535C26.0764 21.9535 26.2413 21.9007 26.4042 21.8674C27.0421 21.7402 27.676 21.5309 28.3178 21.4996C29.5876 21.4409 30.8633 21.5211 32.1351 21.4722C33.976 21.4037 35.7228 21.5465 36.9239 23.1764C38.4528 22.382 39.9149 22.3429 41.3359 23.1803C42.7804 24.0334 43.3927 25.3913 43.4653 26.9977C46.4407 27.4243 47.3513 28.3341 47.9754 31.4413C50.7898 31.7093 52.2481 33.3157 52.464 35.9768C52.621 35.9905 52.7878 36.0081 52.9527 36.0198C55.1233 36.19 56.7641 37.8982 56.8387 40.0622C56.8838 41.381 56.4167 42.4924 55.4845 43.4198C54.0517 44.8443 52.6171 46.2667 51.2687 47.607C51.8811 48.2703 52.4345 48.8691 52.9841 49.4658C54.5974 48.0747 55.4746 48.1079 56.9643 49.6028C57.3882 50.0274 57.7925 50.4755 58.3106 51.0272ZM46.3229 5.04422C44.953 9.25295 44.6939 13.4343 45.8597 17.6411C47.4867 23.511 51.41 27.4888 56.6463 30.326C56.8289 30.4258 57.1743 30.3905 57.3686 30.2829C64.1612 26.5203 68.3868 21.0515 68.7656 13.0704C68.8951 10.3428 68.4967 7.68569 67.588 5.04813C65.6175 5.41011 63.9022 4.70181 62.1986 3.9348C61.2644 3.51413 60.3263 3.09541 59.3783 2.70408C57.7631 2.03686 56.1361 2.03882 54.5247 2.7119C53.3982 3.18345 52.2854 3.68631 51.1686 4.18134C49.6555 4.85247 48.1089 5.35728 46.3229 5.04422ZM2.41305 56.3356C7.85738 61.7692 13.2997 67.1989 18.6695 72.5581C20.4967 70.7384 22.3808 68.864 24.2394 67.013C18.8304 61.6244 13.3822 56.1967 7.95355 50.7885C6.10279 52.6415 4.22456 54.5218 2.41305 56.3356ZM31.2833 57.6113C29.1538 59.8028 26.9832 62.0353 24.8557 64.2228C25.3444 64.9057 26.1216 65.6727 26.4984 66.6001C26.9655 67.7546 26.0274 68.5744 25.1658 69.3668C29.4149 70.2884 33.505 70.3139 37.7266 69.359C36.8984 68.5724 35.9877 67.8348 36.3763 66.7449C36.7041 65.8292 37.4165 65.0505 37.9484 64.2287C35.7856 62.0823 33.5384 59.8517 31.2833 57.6113ZM18.7382 30.7349C18.9816 31.1947 19.1346 31.7445 19.484 32.0987C22.1728 34.8321 24.8969 37.5323 27.621 40.2344C28.1568 40.7666 28.8222 40.9818 29.5739 40.796C31.2185 40.387 31.6935 38.4832 30.4394 37.2212C27.8055 34.568 25.1501 31.9382 22.5005 29.3007C22.3808 29.1813 22.2513 29.062 22.1119 28.9681C21.427 28.5063 20.7047 28.428 19.9668 28.8213C19.2347 29.2127 18.8638 29.8349 18.7382 30.7349ZM25.2463 41.5101C25.0618 41.2088 24.8282 40.6042 24.4121 40.1777C22.3337 38.0449 20.2121 35.9552 18.0984 33.8597C17.1072 32.8755 15.8413 32.8031 14.9778 33.6542C14.0907 34.5288 14.1535 35.7517 15.1525 36.7575C16.3045 37.9177 17.4664 39.0682 18.6244 40.2227C19.6449 41.2382 20.6517 42.2674 21.69 43.2652C22.3514 43.9012 23.1502 44.0362 23.9941 43.6722C24.7909 43.3318 25.1579 42.6763 25.2463 41.5101ZM24.9774 24.1645C23.1737 24.7985 22.8028 26.4792 24.104 27.7902C26.4101 30.1127 28.7358 32.4176 31.0596 34.7245C31.2656 34.928 31.4953 35.1276 31.7504 35.2606C32.5021 35.648 33.2636 35.6539 33.9662 35.1511C34.7022 34.6247 34.973 33.8616 34.7316 33.0242C34.5982 32.5624 34.2233 32.1593 33.925 31.7543C32.9358 30.4121 31.6954 29.872 29.935 29.9464C27.2128 30.0618 25.1521 27.8919 25.0186 25.1683C25.0068 24.8552 24.995 24.5461 24.9774 24.1645ZM19.0326 44.4862C18.8697 44.089 18.803 43.6018 18.5282 43.3122C17.2368 41.9523 15.9238 40.6062 14.5441 39.3363C13.7767 38.63 12.5324 38.7943 11.8219 39.5359C11.1193 40.2696 10.9956 41.4456 11.6963 42.1989C12.9582 43.5548 14.2771 44.858 15.6294 46.1239C16.2496 46.705 17.0562 46.7383 17.8216 46.3528C18.5596 45.9811 18.9325 45.3549 19.0326 44.4862ZM35.4676 24.4971C34.7689 24.1763 34.2488 23.7517 33.713 23.7262C31.7838 23.6382 29.8467 23.6675 27.9135 23.7067C27.6858 23.7106 27.3227 24.0021 27.2619 24.2232C26.9027 25.5713 27.6034 27.1406 28.9046 27.5182C29.8859 27.8019 30.9732 27.7276 32.0154 27.7863C32.1292 27.7921 32.2705 27.6532 32.3706 27.5554C33.3303 26.6142 34.2822 25.6672 35.4676 24.4971Z" fill="url(#paint0_linear_826_4465)"/>
  <path d="M48.2559 14.8646C48.2559 10.6754 51.2999 7.02434 55.3881 6.31017C59.5763 5.57838 63.6193 7.84809 65.1089 11.7692C65.1874 11.9746 65.2758 12.1801 65.3072 12.3953C65.3896 12.9745 65.1639 13.4186 64.6026 13.6084C64.053 13.7963 63.5801 13.626 63.2837 13.1115C63.1502 12.8825 63.0816 12.6164 62.9775 12.3679C61.7921 9.52493 58.8756 7.9557 55.7609 8.48791C52.9269 8.9712 50.6208 11.5324 50.4756 14.3598C50.3107 17.5667 52.2047 20.2747 55.2016 21.1122C58.1671 21.9418 61.2426 20.6426 62.6949 17.9463C62.7754 17.7956 62.8519 17.643 62.9265 17.4904C63.3033 16.7312 63.8901 16.4514 64.5025 16.7391C65.1031 17.0208 65.264 17.6567 64.9029 18.4374C63.7842 20.8578 61.9413 22.4759 59.3761 23.2195C53.814 24.8317 48.2539 20.6445 48.2559 14.8646Z" fill="url(#paint1_linear_826_4465)"/>
  <path d="M56.4422 15.616C57.557 14.4988 58.5854 13.4618 59.6217 12.4326C60.287 11.7732 60.8954 11.7028 61.4018 12.2076C61.8964 12.7006 61.8198 13.3405 61.1702 13.992C59.9318 15.2345 58.6895 16.477 57.4393 17.7096C56.7327 18.4062 56.1792 18.414 55.4904 17.739C54.5522 16.8155 53.618 15.8861 52.6936 14.9508C52.1009 14.3501 52.0518 13.6946 52.5405 13.2231C53.041 12.7417 53.6416 12.8024 54.2696 13.4226C54.9801 14.1212 55.6749 14.8392 56.4422 15.616Z" fill="url(#paint2_linear_826_4465)"/>
  <defs>
    <linearGradient id="paint0_linear_826_4465" x1="3.18759e-07" y1="37.5011" x2="53.3333" y2="77.9998" gradientUnits="userSpaceOnUse">
      <stop stop-color="#03D9CC"/>
      <stop offset="1" stop-color="#4BA6FF"/>
    </linearGradient>
    <linearGradient id="paint1_linear_826_4465" x1="3.18759e-07" y1="37.5011" x2="53.3333" y2="77.9998" gradientUnits="userSpaceOnUse">
      <stop stop-color="#03D9CC"/>
      <stop offset="1" stop-color="#4BA6FF"/>
    </linearGradient>
    <linearGradient id="paint2_linear_826_4465" x1="3.18759e-07" y1="37.5011" x2="53.3333" y2="77.9998" gradientUnits="userSpaceOnUse">
      <stop stop-color="#03D9CC"/>
      <stop offset="1" stop-color="#4BA6FF"/>
    </linearGradient>
  </defs>
</svg>